<svg width="179" height="86" viewBox="0 0 179 86" fill="none" xmlns="http://www.w3.org/2000/svg">
<g clip-path="url(#clip0_445_2487)">
<path d="M21.5357 58.9047C20.3893 58.1663 19.2429 57.5921 17.8509 57.1818C16.5407 56.7716 15.2306 56.4435 14.0842 56.1153C13.1834 55.8692 12.2008 55.623 11.382 55.3769C10.4812 55.1308 9.74428 54.8026 9.00732 54.3924C8.35224 53.9822 7.77905 53.572 7.36963 52.9977C6.9602 52.4234 6.71455 51.7671 6.71455 50.9466C6.71455 49.1417 7.28774 47.747 8.35224 46.8445C9.49863 45.9421 10.8907 45.4498 12.774 45.4498C13.9204 45.4498 15.3124 45.5319 16.7864 45.778C18.2603 46.0241 19.898 46.4343 21.5357 47.1727L23.1734 43.2347C21.6176 42.3322 19.898 41.7579 18.0965 41.4298C16.2951 41.1016 14.5755 40.9375 13.0197 40.9375C9.25297 40.9375 6.22324 41.84 4.09424 43.6449C1.96523 45.4498 0.818847 47.9111 0.818847 51.0287C0.818847 52.7516 1.14639 54.0642 1.80146 55.2128C2.45654 56.2794 3.35727 57.1818 4.42178 57.9202C5.56816 58.6586 6.79643 59.2329 8.27036 59.6431C9.74428 60.1354 11.2182 60.5456 12.8559 60.9558C13.8385 61.2019 14.7393 61.5301 15.5581 61.7762C16.3769 62.0223 17.032 62.3505 17.6871 62.8427C18.2603 63.253 18.7516 63.7452 19.0791 64.3195C19.4067 64.8938 19.5704 65.6322 19.5704 66.5346C19.5704 68.5857 18.9154 70.0624 17.6871 70.8829C16.3769 71.7033 14.5755 72.1135 12.2827 72.1135C11.0544 72.1135 9.58051 71.9494 7.77905 71.7033C5.8957 71.5392 3.84858 70.8829 1.63769 69.8984L0 74.0005C1.88335 74.985 3.84858 75.7234 5.97759 76.1336C8.10659 76.5438 10.0718 76.7079 11.7914 76.7079C16.0494 76.7079 19.4067 75.8874 21.7813 74.1646C24.156 72.5237 25.3843 69.9804 25.3843 66.6167C25.3843 64.6477 25.0567 63.0889 24.3198 61.8582C23.5009 60.6276 22.6002 59.6431 21.5357 58.9047Z" fill="white"/>
<path d="M48.6387 55.0494C47.738 53.8187 46.5916 52.9163 45.1177 52.1779C43.6437 51.4395 41.8423 51.1113 39.7133 51.1113C37.5843 51.1113 35.7828 51.4395 34.3089 52.1779C32.835 52.9163 31.6067 53.9008 30.6241 55.0494C29.7233 56.28 28.9864 57.5927 28.577 59.1515C28.1675 60.7103 27.9219 62.3511 27.9219 63.992C27.9219 65.7148 28.0856 67.3557 28.4951 68.9145C28.9045 70.4733 29.5596 71.786 30.3784 73.0166C31.2792 74.1652 32.4255 75.0677 33.8995 75.806C35.3734 76.4624 37.1749 76.7905 39.3039 76.7905C41.5147 76.7905 43.3981 76.4624 44.9539 75.724C46.4278 74.9856 47.6561 74.0832 48.6387 72.8525C49.5395 71.6219 50.1945 70.3092 50.604 68.7504C51.0134 67.1916 51.1771 65.6328 51.1771 63.992C51.1771 62.3511 51.0134 60.7103 50.604 59.1515C50.1945 57.5927 49.5395 56.1979 48.6387 55.0494ZM45.1996 67.1916C45.0358 68.2582 44.7901 69.1606 44.3807 69.981C43.9713 70.8015 43.3981 71.4578 42.6611 71.9501C41.9242 72.4423 40.9416 72.6884 39.7133 72.6884C38.4031 72.6884 37.4205 72.4423 36.6017 71.9501C35.7828 71.4578 35.2096 70.8835 34.7183 70.0631C34.3089 69.2427 33.9813 68.3402 33.8176 67.2736C33.6538 66.2071 33.5719 65.1405 33.5719 63.9099C33.5719 62.8434 33.6538 61.7768 33.8176 60.7103C33.9813 59.6437 34.3089 58.6592 34.8002 57.8388C35.2915 57.0184 35.8647 56.28 36.6835 55.7877C37.5024 55.2955 38.485 54.9673 39.7133 54.9673C40.9416 54.9673 41.9242 55.2134 42.6611 55.7877C43.3981 56.362 43.9713 57.0184 44.4626 57.9208C44.872 58.7413 45.1996 59.7258 45.2814 60.7923C45.4452 61.8589 45.4452 62.9254 45.4452 63.9099C45.4452 65.1405 45.3633 66.2071 45.1996 67.1916Z" fill="white"/>
<path d="M69.2766 72.0301C68.2121 72.2762 66.9838 72.4403 65.7555 72.4403C64.4454 72.4403 63.4627 72.1942 62.562 71.784C61.7432 71.3738 61.0881 70.7995 60.5149 70.0611C60.0236 69.3227 59.6142 68.4203 59.4504 67.3537C59.2047 66.2872 59.1228 65.1386 59.1228 63.9079C59.1228 61.2826 59.696 59.2316 60.8424 57.6728C61.9888 56.196 63.7084 55.3756 65.9193 55.3756C66.6562 55.3756 67.557 55.4576 68.4577 55.5397C69.3584 55.6217 70.423 55.8678 71.5693 56.196L72.552 52.258C71.2418 51.7657 69.9316 51.4376 68.7034 51.2735C67.4751 51.1094 66.3287 51.0273 65.2642 51.0273C62.8077 51.0273 60.8424 51.4376 59.3685 52.34C57.8946 53.1604 56.6663 54.309 55.8475 55.5397C55.0286 56.8523 54.3735 58.247 54.046 59.8058C53.7185 61.3646 53.5547 62.8414 53.5547 64.2361C53.5547 65.959 53.7185 67.5998 54.1279 69.1586C54.5373 70.6354 55.1105 71.9481 56.0112 73.0967C56.912 74.2452 58.0583 75.0657 59.5323 75.722C61.0062 76.3783 62.8077 76.7065 65.0186 76.7065C66.6563 76.7065 68.2939 76.5424 69.8498 76.1322C71.4056 75.722 72.7976 75.3118 73.944 74.6555L72.7157 70.9636C71.4875 71.4558 70.4229 71.784 69.2766 72.0301Z" fill="white"/>
<path d="M82.6191 50.9473H77.1328V76.2983H82.6191V50.9473Z" fill="white"/>
<path d="M79.916 41.0195C78.9334 41.0195 78.1145 41.3477 77.5413 41.922C76.8863 42.5783 76.6406 43.3167 76.6406 44.2192C76.6406 45.1216 76.9682 45.86 77.5413 46.4343C78.1964 47.0907 78.9334 47.3368 79.916 47.3368C80.9805 47.3368 81.7993 47.0086 82.3725 46.4343C83.0276 45.778 83.2732 45.0396 83.2732 44.2192C83.2732 43.3167 82.9457 42.5783 82.3725 41.922C81.7174 41.3477 80.8986 41.0195 79.916 41.0195Z" fill="white"/>
<path d="M159.348 58.247C159.103 57.3446 158.775 56.4421 158.366 55.6217C157.956 54.8013 157.301 53.9809 156.564 53.3245C155.745 52.6682 154.763 52.0939 153.616 51.6837C152.388 51.2735 150.996 51.0273 149.276 51.0273C146.902 51.0273 144.936 51.4376 143.463 52.34C141.989 53.2425 140.842 54.309 140.023 55.7037C139.205 57.0164 138.631 58.4111 138.304 59.9699C137.976 61.4467 137.812 62.8414 137.812 64.072C137.812 65.7949 137.976 67.4358 138.304 68.9125C138.631 70.4713 139.205 71.784 140.105 72.9326C141.006 74.0812 142.152 74.9836 143.626 75.722C145.1 76.3783 147.065 76.7065 149.358 76.7065C151.078 76.7065 152.716 76.5424 154.353 76.1322C155.991 75.722 157.547 75.1477 159.103 74.3273L158.038 70.8815C156.728 71.4558 155.418 71.866 154.108 72.1122C152.879 72.3583 151.487 72.5224 150.095 72.5224C148.867 72.5224 147.802 72.3583 146.984 71.9481C146.165 71.5379 145.428 71.0456 144.936 70.3072C144.445 69.6509 144.036 68.8305 143.79 67.928C143.544 67.0255 143.463 66.041 143.463 64.8925H159.839V62.9234C159.839 62.3492 159.839 61.6108 159.758 60.7903C159.758 59.9699 159.594 59.0675 159.348 58.247ZM143.626 61.8569C143.708 60.9544 143.872 60.052 144.036 59.1495C144.281 58.3291 144.609 57.5087 145.018 56.8523C145.51 56.196 146.083 55.7037 146.82 55.2935C147.557 54.8833 148.458 54.7192 149.522 54.7192C150.505 54.7192 151.405 54.8833 152.06 55.2115C152.716 55.5397 153.289 56.0319 153.698 56.6882C154.108 57.3446 154.353 58.083 154.517 58.9034C154.681 59.8058 154.763 60.7083 154.763 61.7749H143.626V61.8569Z" fill="white"/>
<path d="M177.771 71.6207C176.87 71.8668 175.969 72.0309 175.232 72.195C174.495 72.3591 173.84 72.3591 173.267 72.3591C171.957 72.3591 171.056 72.0309 170.565 71.2925C170.074 70.6362 169.91 69.6517 169.91 68.4211V55.3764H177.28V51.5204H169.992V45.0391L166.389 45.5313C166.389 45.6134 166.225 45.9415 166.143 46.5158C165.979 47.0901 165.816 47.6644 165.652 48.3207C165.488 48.9771 165.324 49.6334 165.161 50.1257C164.997 50.7 164.915 51.0281 164.915 51.1102L161.066 52.2588V55.2943H164.587V69.8978C164.587 71.8668 165.161 73.5077 166.225 74.6563C167.372 75.8869 169.255 76.4612 172.039 76.4612C173.103 76.4612 174.168 76.3791 175.396 76.133C176.543 75.8869 177.607 75.5587 178.59 75.0665L177.771 71.6207Z" fill="white"/>
<path d="M133.142 45.7779V41.2656H127.492V50.8646L133.142 45.7779Z" fill="white"/>
<path d="M127.492 55.7059V69.3249C127.492 70.8016 127.329 72.1964 127.083 73.2629C126.837 74.4115 126.346 75.396 125.691 76.3805C125.036 77.283 124.135 78.1854 122.989 79.0058C121.842 79.8263 120.45 80.7287 118.812 81.6312L120.286 85.6513C124.544 84.4206 127.738 82.5337 129.949 79.9083C132.16 77.365 133.224 73.7551 133.224 69.2428V49.7168L127.492 55.7059Z" fill="white"/>
<path d="M119.635 57.9202L119.717 41.3477H114.148V62.9248L119.635 57.9202Z" fill="white"/>
<path d="M114.148 69.4891V76.2986H119.635V63.7461L114.148 69.4891Z" fill="white"/>
<path d="M107.273 76.6255C107.765 76.5435 108.338 76.5435 108.911 76.3794C109.812 76.2153 110.631 75.8871 111.368 75.559L111.122 72.6875L107.273 76.6255Z" fill="white"/>
<path d="M101.212 74.6575L107.763 68.7504V59.5617C107.763 58.0029 107.517 56.6902 107.108 55.6236C106.698 54.5571 106.125 53.6546 105.306 52.9983C104.569 52.3419 103.587 51.8497 102.522 51.6036C101.376 51.3574 100.148 51.1934 98.7557 51.1934C97.118 51.1934 95.3984 51.3574 93.5969 51.6856C91.7955 52.0138 90.1578 52.506 88.7657 53.1624C88.9295 53.7367 89.0933 54.311 89.257 54.9673C89.4208 55.5416 89.5846 56.1979 89.7483 56.7722C90.9766 56.362 92.2049 56.0339 93.5969 55.7877C94.989 55.5416 96.2172 55.4596 97.4455 55.4596C99.4107 55.4596 100.721 55.8698 101.376 56.6082C102.031 57.3465 102.44 58.6592 102.44 60.4641V61.8589L96.4629 62.2691C95.0708 62.3511 93.8426 62.5152 92.6143 62.8434C91.4679 63.1715 90.4034 63.6638 89.5027 64.3201C88.602 64.9765 87.9469 65.7148 87.3737 66.6173C86.8824 67.5198 86.6367 68.5863 86.6367 69.7349C86.6367 70.4733 86.7186 71.2117 86.9643 72.0321C87.2099 72.8525 87.5374 73.5909 88.1106 74.3293C88.6838 75.0677 89.4208 75.642 90.4034 76.1342C91.386 76.6265 92.6143 76.8726 94.0882 76.8726C94.4977 76.8726 94.9071 76.8726 95.5621 76.7906C96.1353 76.7906 96.7904 76.6265 97.6093 76.4624C98.3462 76.2983 99.1651 75.9701 100.066 75.4779C100.393 75.1497 100.803 74.9036 101.212 74.6575ZM96.4629 72.9346C95.0708 72.9346 94.0063 72.6064 93.4331 71.9501C92.7781 71.2937 92.5324 70.3092 92.5324 69.0786C92.5324 67.93 92.86 67.1096 93.5969 66.4532C94.252 65.7969 95.3984 65.3867 96.8723 65.3046L102.522 64.8944V70.2272C101.54 71.1296 100.557 71.786 99.4926 72.2782C98.4281 72.6884 97.4455 72.9346 96.4629 72.9346Z" fill="white"/>
<path d="M159.348 58.247C159.103 57.3446 158.775 56.4421 158.366 55.6217C157.956 54.8013 157.301 53.9809 156.564 53.3245C155.745 52.6682 154.763 52.0939 153.616 51.6837C152.388 51.2735 150.996 51.0273 149.276 51.0273C146.902 51.0273 144.936 51.4376 143.463 52.34C141.989 53.2425 140.842 54.309 140.023 55.7037C139.205 57.0164 138.631 58.4111 138.304 59.9699C137.976 61.4467 137.812 62.8414 137.812 64.072C137.812 65.7949 137.976 67.4358 138.304 68.9125C138.631 70.4713 139.205 71.784 140.105 72.9326C141.006 74.0812 142.152 74.9836 143.626 75.722C145.1 76.3783 147.065 76.7065 149.358 76.7065C151.078 76.7065 152.716 76.5424 154.353 76.1322C155.991 75.722 157.547 75.1477 159.103 74.3273L158.038 70.8815C156.728 71.4558 155.418 71.866 154.108 72.1122C152.879 72.3583 151.487 72.5224 150.095 72.5224C148.867 72.5224 147.802 72.3583 146.984 71.9481C146.165 71.5379 145.428 71.0456 144.936 70.3072C144.445 69.6509 144.036 68.8305 143.79 67.928C143.544 67.0255 143.463 66.041 143.463 64.8925H159.84V62.9234C159.84 62.3492 159.84 61.6108 159.758 60.7903C159.758 59.9699 159.594 59.0675 159.348 58.247ZM143.626 61.8569C143.708 60.9544 143.872 60.052 144.036 59.1495C144.281 58.3291 144.609 57.5087 145.018 56.8523C145.51 56.196 146.083 55.7037 146.82 55.2935C147.557 54.8833 148.458 54.7192 149.522 54.7192C150.505 54.7192 151.405 54.8833 152.06 55.2115C152.716 55.5397 153.289 56.0319 153.698 56.6882C154.108 57.3446 154.353 58.083 154.517 58.9034C154.681 59.8058 154.763 60.7083 154.763 61.7749H143.626V61.8569Z" fill="white"/>
<path d="M177.771 71.6207C176.87 71.8668 175.969 72.0309 175.232 72.195C174.496 72.3591 173.84 72.3591 173.267 72.3591C171.957 72.3591 171.056 72.0309 170.565 71.2925C170.074 70.6362 169.91 69.6517 169.91 68.4211V55.3764H177.28V51.5204H169.992V45.0391L166.389 45.5313C166.389 45.6134 166.225 45.9415 166.143 46.5158C165.979 47.0901 165.816 47.6644 165.652 48.3207C165.488 48.9771 165.324 49.6334 165.161 50.1257C164.997 50.7 164.915 51.0281 164.915 51.1102L161.066 52.2588V55.2943H164.587V69.8978C164.587 71.8668 165.161 73.5077 166.225 74.6563C167.372 75.8869 169.255 76.4612 172.039 76.4612C173.103 76.4612 174.168 76.3792 175.396 76.133C176.543 75.8869 177.607 75.5587 178.59 75.0665L177.771 71.6207Z" fill="white"/>
<path d="M127.492 55.7039V69.3229C127.492 70.7997 127.329 72.1944 127.083 73.261C126.837 74.4096 126.346 75.3941 125.691 76.3786C125.036 77.281 124.135 78.1835 122.989 79.0039C121.842 79.8244 120.45 80.7268 118.812 81.6293L120.286 85.6494C124.544 84.4187 127.738 82.5318 129.949 79.9064C132.16 77.3631 133.224 73.7532 133.224 69.2409V49.7148L127.492 55.7039Z" fill="white"/>
<path d="M114.148 69.4891V76.2986H119.635V63.7461L114.148 69.4891Z" fill="white"/>
<path d="M107.266 76.6255C107.757 76.5435 108.33 76.5435 108.903 76.3794C109.804 76.2153 110.623 75.8871 111.36 75.559L111.114 72.6875L107.266 76.6255Z" fill="white"/>
<path d="M138.055 44.5471V49.5517C140.102 46.6802 154.022 27.8926 154.022 27.8926L138.055 44.5471Z" fill="white"/>
<path opacity="0.15" d="M138.055 44.5471V49.5517C140.102 46.6802 154.022 27.8926 154.022 27.8926L138.055 44.5471Z" fill="white"/>
<path d="M138.055 41.3468L146.98 33.2246L139.938 38.0651C139.447 38.3933 138.792 38.8855 138.055 39.4598V41.3468Z" fill="white"/>
<path fill-rule="evenodd" clip-rule="evenodd" d="M159.593 29.6993C159.757 29.4531 160.003 29.125 160.167 28.8789L160.33 28.6327V28.3046C160.248 26.9919 159.757 25.5151 159.102 24.3665L158.693 23.5461L157.956 24.0384C157.383 24.4486 156.891 24.7767 156.318 25.1049L155.417 24.2845C155.745 23.7102 156.072 23.1359 156.4 22.5616L156.891 21.8232L156.072 21.413C154.844 20.8387 153.37 20.5105 152.06 20.4285H151.732L151.487 20.5926C151.241 20.8387 150.914 21.0028 150.668 21.1669C151.651 19.6081 152.879 18.0493 154.189 16.6546C155.254 15.506 156.482 14.4394 157.71 13.4549H157.874C157.956 13.537 157.956 13.619 157.874 13.619C157.383 14.3574 156.809 15.0958 156.236 15.7521L155.254 16.9007L156.809 17.0648C157.546 17.1468 158.365 17.2289 159.102 17.3929L159.593 17.475L159.921 17.0648C161.395 15.0958 163.196 13.2908 164.752 11.3218C168.928 6.23521 173.759 2.70739 178.918 0C176.216 5.2507 172.613 10.2553 168.355 14.7676C166.636 16.5725 164.834 18.2954 162.951 19.9363L162.541 20.2644L162.623 20.7567C162.787 21.5771 162.951 22.3155 163.033 23.0539L163.278 24.6127L164.425 23.5461C165.08 22.9718 165.735 22.3975 166.472 21.8232H166.635C166.717 21.9053 166.717 21.9873 166.635 21.9873C165.735 23.3 164.752 24.5306 163.688 25.6792C162.541 27.4021 161.067 28.6327 159.593 29.6993Z" fill="white"/>
</g>
<mask id="mask0_445_2487" style="mask-type:alpha" maskUnits="userSpaceOnUse" x="0" y="0" width="179" height="86">
<path d="M21.5357 58.9047C20.3893 58.1663 19.2429 57.592 17.8509 57.1818C16.5407 56.7716 15.2306 56.4435 14.0842 56.1153C13.1834 55.8692 12.2008 55.623 11.382 55.3769C10.4812 55.1308 9.74428 54.8026 9.00732 54.3924C8.35224 53.9822 7.77905 53.572 7.36963 52.9977C6.9602 52.4234 6.71455 51.7671 6.71455 50.9466C6.71455 49.1417 7.28774 47.747 8.35224 46.8445C9.49863 45.9421 10.8907 45.4498 12.774 45.4498C13.9204 45.4498 15.3124 45.5319 16.7864 45.778C18.2603 46.0241 19.898 46.4343 21.5357 47.1727L23.1734 43.2347C21.6176 42.3322 19.898 41.7579 18.0965 41.4298C16.2951 41.1016 14.5755 40.9375 13.0197 40.9375C9.25297 40.9375 6.22324 41.84 4.09424 43.6449C1.96523 45.4498 0.818847 47.9111 0.818847 51.0287C0.818847 52.7516 1.14639 54.0642 1.80146 55.2128C2.45654 56.2794 3.35727 57.1818 4.42178 57.9202C5.56816 58.6586 6.79643 59.2329 8.27036 59.6431C9.74428 60.1354 11.2182 60.5456 12.8559 60.9558C13.8385 61.2019 14.7393 61.5301 15.5581 61.7762C16.3769 62.0223 17.032 62.3505 17.6871 62.8427C18.2603 63.2529 18.7516 63.7452 19.0791 64.3195C19.4067 64.8938 19.5704 65.6322 19.5704 66.5346C19.5704 68.5857 18.9154 70.0624 17.6871 70.8829C16.3769 71.7033 14.5755 72.1135 12.2827 72.1135C11.0544 72.1135 9.58051 71.9494 7.77905 71.7033C5.8957 71.5392 3.84858 70.8829 1.63769 69.8984L0 74.0005C1.88335 74.985 3.84858 75.7234 5.97759 76.1336C8.10659 76.5438 10.0718 76.7079 11.7914 76.7079C16.0494 76.7079 19.4067 75.8874 21.7813 74.1646C24.156 72.5237 25.3843 69.9804 25.3843 66.6167C25.3843 64.6477 25.0567 63.0889 24.3198 61.8582C23.5009 60.6276 22.6002 59.6431 21.5357 58.9047Z" fill="#79B1FC"/>
<path d="M48.6387 55.0494C47.738 53.8187 46.5916 52.9163 45.1177 52.1779C43.6437 51.4395 41.8423 51.1113 39.7133 51.1113C37.5843 51.1113 35.7828 51.4395 34.3089 52.1779C32.835 52.9163 31.6067 53.9008 30.6241 55.0494C29.7233 56.28 28.9864 57.5927 28.577 59.1515C28.1675 60.7103 27.9219 62.3511 27.9219 63.992C27.9219 65.7148 28.0856 67.3557 28.4951 68.9145C28.9045 70.4733 29.5596 71.786 30.3784 73.0166C31.2792 74.1652 32.4255 75.0677 33.8995 75.806C35.3734 76.4624 37.1749 76.7905 39.3039 76.7905C41.5147 76.7905 43.3981 76.4624 44.9539 75.724C46.4278 74.9856 47.6561 74.0832 48.6387 72.8525C49.5395 71.6219 50.1945 70.3092 50.604 68.7504C51.0134 67.1916 51.1771 65.6328 51.1771 63.992C51.1771 62.3511 51.0134 60.7103 50.604 59.1515C50.1945 57.5927 49.5395 56.1979 48.6387 55.0494ZM45.1996 67.1916C45.0358 68.2582 44.7901 69.1606 44.3807 69.981C43.9713 70.8015 43.3981 71.4578 42.6611 71.9501C41.9242 72.4423 40.9416 72.6884 39.7133 72.6884C38.4031 72.6884 37.4205 72.4423 36.6017 71.9501C35.7828 71.4578 35.2096 70.8835 34.7183 70.0631C34.3089 69.2427 33.9813 68.3402 33.8176 67.2736C33.6538 66.2071 33.5719 65.1405 33.5719 63.9099C33.5719 62.8434 33.6538 61.7768 33.8176 60.7103C33.9813 59.6437 34.3089 58.6592 34.8002 57.8388C35.2915 57.0184 35.8647 56.28 36.6835 55.7877C37.5024 55.2955 38.485 54.9673 39.7133 54.9673C40.9416 54.9673 41.9242 55.2134 42.6611 55.7877C43.3981 56.362 43.9713 57.0184 44.4626 57.9208C44.872 58.7413 45.1996 59.7258 45.2814 60.7923C45.4452 61.8589 45.4452 62.9254 45.4452 63.9099C45.4452 65.1405 45.3633 66.2071 45.1996 67.1916Z" fill="#79B1FC"/>
<path d="M69.2766 72.0301C68.2121 72.2762 66.9838 72.4403 65.7555 72.4403C64.4454 72.4403 63.4627 72.1942 62.562 71.784C61.7432 71.3738 61.0881 70.7995 60.5149 70.0611C60.0236 69.3227 59.6142 68.4203 59.4504 67.3537C59.2047 66.2872 59.1228 65.1386 59.1228 63.9079C59.1228 61.2826 59.696 59.2316 60.8424 57.6728C61.9888 56.196 63.7084 55.3756 65.9193 55.3756C66.6562 55.3756 67.557 55.4576 68.4577 55.5397C69.3584 55.6217 70.423 55.8678 71.5693 56.196L72.552 52.258C71.2418 51.7657 69.9316 51.4376 68.7034 51.2735C67.4751 51.1094 66.3287 51.0273 65.2642 51.0273C62.8077 51.0273 60.8424 51.4376 59.3685 52.34C57.8946 53.1604 56.6663 54.309 55.8475 55.5397C55.0286 56.8523 54.3735 58.247 54.046 59.8058C53.7185 61.3646 53.5547 62.8414 53.5547 64.2361C53.5547 65.959 53.7185 67.5998 54.1279 69.1586C54.5373 70.6354 55.1105 71.9481 56.0112 73.0967C56.912 74.2452 58.0583 75.0657 59.5323 75.722C61.0062 76.3783 62.8077 76.7065 65.0186 76.7065C66.6563 76.7065 68.2939 76.5424 69.8498 76.1322C71.4056 75.722 72.7976 75.3118 73.944 74.6555L72.7157 70.9636C71.4875 71.4558 70.4229 71.784 69.2766 72.0301Z" fill="#79B1FC"/>
<path d="M82.6191 50.9473H77.1328V76.2983H82.6191V50.9473Z" fill="#79B1FC"/>
<path d="M79.916 41.0195C78.9334 41.0195 78.1145 41.3477 77.5413 41.922C76.8863 42.5783 76.6406 43.3167 76.6406 44.2192C76.6406 45.1216 76.9682 45.86 77.5413 46.4343C78.1964 47.0907 78.9334 47.3368 79.916 47.3368C80.9805 47.3368 81.7993 47.0086 82.3725 46.4343C83.0276 45.778 83.2732 45.0396 83.2732 44.2192C83.2732 43.3167 82.9457 42.5783 82.3725 41.922C81.7174 41.3477 80.8986 41.0195 79.916 41.0195Z" fill="#79B1FC"/>
<path d="M159.348 58.247C159.103 57.3446 158.775 56.4421 158.366 55.6217C157.956 54.8013 157.301 53.9809 156.564 53.3245C155.745 52.6682 154.763 52.0939 153.616 51.6837C152.388 51.2735 150.996 51.0273 149.276 51.0273C146.902 51.0273 144.936 51.4376 143.463 52.34C141.989 53.2425 140.842 54.309 140.023 55.7037C139.205 57.0164 138.631 58.4111 138.304 59.9699C137.976 61.4467 137.812 62.8414 137.812 64.072C137.812 65.7949 137.976 67.4358 138.304 68.9125C138.631 70.4713 139.205 71.784 140.105 72.9326C141.006 74.0812 142.152 74.9836 143.626 75.722C145.1 76.3783 147.065 76.7065 149.358 76.7065C151.078 76.7065 152.716 76.5424 154.353 76.1322C155.991 75.722 157.547 75.1477 159.103 74.3273L158.038 70.8815C156.728 71.4558 155.418 71.866 154.108 72.1122C152.879 72.3583 151.487 72.5224 150.095 72.5224C148.867 72.5224 147.802 72.3583 146.984 71.9481C146.165 71.5379 145.428 71.0456 144.936 70.3072C144.445 69.6509 144.036 68.8305 143.79 67.928C143.544 67.0255 143.463 66.041 143.463 64.8925H159.839V62.9234C159.839 62.3492 159.839 61.6108 159.758 60.7903C159.758 59.9699 159.594 59.0675 159.348 58.247ZM143.626 61.8569C143.708 60.9544 143.872 60.052 144.036 59.1495C144.281 58.3291 144.609 57.5087 145.018 56.8523C145.51 56.196 146.083 55.7037 146.82 55.2935C147.557 54.8833 148.458 54.7192 149.522 54.7192C150.505 54.7192 151.405 54.8833 152.06 55.2115C152.716 55.5397 153.289 56.0319 153.698 56.6882C154.108 57.3446 154.353 58.083 154.517 58.9034C154.681 59.8058 154.763 60.7083 154.763 61.7749H143.626V61.8569Z" fill="#79B1FC"/>
<path d="M177.771 71.6207C176.87 71.8668 175.969 72.0309 175.232 72.195C174.495 72.3591 173.84 72.3591 173.267 72.3591C171.957 72.3591 171.056 72.0309 170.565 71.2925C170.074 70.6362 169.91 69.6517 169.91 68.4211V55.3764H177.28V51.5204H169.992V45.0391L166.389 45.5313C166.389 45.6134 166.225 45.9415 166.143 46.5158C165.979 47.0901 165.816 47.6644 165.652 48.3207C165.488 48.9771 165.324 49.6334 165.161 50.1257C164.997 50.7 164.915 51.0281 164.915 51.1102L161.066 52.2588V55.2943H164.587V69.8978C164.587 71.8668 165.161 73.5077 166.225 74.6563C167.372 75.8869 169.255 76.4612 172.039 76.4612C173.103 76.4612 174.168 76.3791 175.396 76.133C176.543 75.8869 177.607 75.5587 178.59 75.0665L177.771 71.6207Z" fill="#79B1FC"/>
<path d="M133.142 45.7779V41.2656H127.492V50.8646L133.142 45.7779Z" fill="#79B1FC"/>
<path d="M127.492 55.7059V69.3249C127.492 70.8016 127.329 72.1964 127.083 73.2629C126.837 74.4115 126.346 75.396 125.691 76.3805C125.036 77.283 124.135 78.1854 122.989 79.0058C121.842 79.8263 120.45 80.7287 118.812 81.6312L120.286 85.6513C124.544 84.4206 127.738 82.5337 129.949 79.9083C132.16 77.365 133.224 73.7551 133.224 69.2428V49.7168L127.492 55.7059Z" fill="#79B1FC"/>
<path d="M119.635 57.9202L119.717 41.3477H114.148V62.9248L119.635 57.9202Z" fill="#79B1FC"/>
<path d="M114.148 69.4891V76.2986H119.635V63.7461L114.148 69.4891Z" fill="#79B1FC"/>
<path d="M107.273 76.6255C107.765 76.5435 108.338 76.5435 108.911 76.3794C109.812 76.2153 110.631 75.8871 111.368 75.559L111.122 72.6875L107.273 76.6255Z" fill="#79B1FC"/>
<path d="M101.212 74.6575L107.763 68.7504V59.5617C107.763 58.0029 107.517 56.6902 107.108 55.6236C106.698 54.5571 106.125 53.6546 105.306 52.9983C104.569 52.3419 103.587 51.8497 102.522 51.6036C101.376 51.3574 100.148 51.1934 98.7557 51.1934C97.118 51.1934 95.3984 51.3574 93.5969 51.6856C91.7955 52.0138 90.1578 52.506 88.7657 53.1624C88.9295 53.7367 89.0933 54.311 89.257 54.9673C89.4208 55.5416 89.5846 56.1979 89.7483 56.7722C90.9766 56.362 92.2049 56.0339 93.5969 55.7877C94.989 55.5416 96.2172 55.4596 97.4455 55.4596C99.4107 55.4596 100.721 55.8698 101.376 56.6082C102.031 57.3465 102.44 58.6592 102.44 60.4641V61.8589L96.4629 62.2691C95.0708 62.3511 93.8426 62.5152 92.6143 62.8434C91.4679 63.1715 90.4034 63.6638 89.5027 64.3201C88.602 64.9765 87.9469 65.7148 87.3737 66.6173C86.8824 67.5198 86.6367 68.5863 86.6367 69.7349C86.6367 70.4733 86.7186 71.2117 86.9643 72.0321C87.2099 72.8525 87.5374 73.5909 88.1106 74.3293C88.6838 75.0677 89.4208 75.642 90.4034 76.1342C91.386 76.6265 92.6143 76.8726 94.0882 76.8726C94.4977 76.8726 94.9071 76.8726 95.5621 76.7906C96.1353 76.7906 96.7904 76.6265 97.6093 76.4624C98.3462 76.2983 99.1651 75.9701 100.066 75.4779C100.393 75.1497 100.803 74.9036 101.212 74.6575ZM96.4629 72.9346C95.0708 72.9346 94.0063 72.6064 93.4331 71.9501C92.7781 71.2937 92.5324 70.3092 92.5324 69.0786C92.5324 67.93 92.86 67.1096 93.5969 66.4532C94.252 65.7969 95.3984 65.3867 96.8723 65.3046L102.522 64.8944V70.2272C101.54 71.1296 100.557 71.786 99.4926 72.2782C98.4281 72.6884 97.4455 72.9346 96.4629 72.9346Z" fill="#79B1FC"/>
<path d="M159.348 58.247C159.103 57.3446 158.775 56.4421 158.366 55.6217C157.956 54.8013 157.301 53.9809 156.564 53.3245C155.745 52.6682 154.763 52.0939 153.616 51.6837C152.388 51.2735 150.996 51.0273 149.276 51.0273C146.902 51.0273 144.936 51.4376 143.463 52.34C141.989 53.2425 140.842 54.309 140.023 55.7037C139.205 57.0164 138.631 58.4111 138.304 59.9699C137.976 61.4467 137.812 62.8414 137.812 64.072C137.812 65.7949 137.976 67.4358 138.304 68.9125C138.631 70.4713 139.205 71.784 140.105 72.9326C141.006 74.0812 142.152 74.9836 143.626 75.722C145.1 76.3783 147.065 76.7065 149.358 76.7065C151.078 76.7065 152.716 76.5424 154.353 76.1322C155.991 75.722 157.547 75.1477 159.103 74.3273L158.038 70.8815C156.728 71.4558 155.418 71.866 154.108 72.1122C152.879 72.3583 151.487 72.5224 150.095 72.5224C148.867 72.5224 147.802 72.3583 146.984 71.9481C146.165 71.5379 145.428 71.0456 144.936 70.3072C144.445 69.6509 144.036 68.8305 143.79 67.928C143.544 67.0256 143.463 66.041 143.463 64.8925H159.84V62.9234C159.84 62.3492 159.84 61.6108 159.758 60.7903C159.758 59.9699 159.594 59.0675 159.348 58.247ZM143.626 61.8569C143.708 60.9544 143.872 60.052 144.036 59.1495C144.281 58.3291 144.609 57.5087 145.018 56.8523C145.51 56.196 146.083 55.7037 146.82 55.2935C147.557 54.8833 148.458 54.7192 149.522 54.7192C150.505 54.7192 151.405 54.8833 152.06 55.2115C152.716 55.5397 153.289 56.0319 153.698 56.6882C154.108 57.3446 154.353 58.083 154.517 58.9034C154.681 59.8058 154.763 60.7083 154.763 61.7749H143.626V61.8569Z" fill="#79B1FC"/>
<path d="M177.767 71.6207C176.866 71.8668 175.966 72.0309 175.229 72.195C174.492 72.3591 173.837 72.3591 173.263 72.3591C171.953 72.3591 171.052 72.0309 170.561 71.2925C170.07 70.6362 169.906 69.6517 169.906 68.4211V55.3764H177.276V51.5204H169.988V45.0391L166.385 45.5313C166.385 45.6134 166.221 45.9415 166.139 46.5158C165.976 47.0901 165.812 47.6644 165.648 48.3207C165.484 48.9771 165.321 49.6334 165.157 50.1257C164.993 50.7 164.911 51.0281 164.911 51.1102L161.062 52.2588V55.2943H164.584V69.8978C164.584 71.8668 165.157 73.5077 166.221 74.6563C167.368 75.8869 169.251 76.4612 172.035 76.4612C173.1 76.4612 174.164 76.3792 175.392 76.133C176.539 75.8869 177.603 75.5587 178.586 75.0665L177.767 71.6207Z" fill="#79B1FC"/>
<path d="M127.492 55.7039V69.3229C127.492 70.7997 127.329 72.1944 127.083 73.261C126.837 74.4096 126.346 75.3941 125.691 76.3786C125.036 77.281 124.135 78.1835 122.989 79.0039C121.842 79.8244 120.45 80.7268 118.812 81.6293L120.286 85.6494C124.544 84.4187 127.738 82.5318 129.949 79.9064C132.16 77.3631 133.224 73.7532 133.224 69.2409V49.7148L127.492 55.7039Z" fill="#79B1FC"/>
<path d="M114.148 69.4891V76.2986H119.635V63.7461L114.148 69.4891Z" fill="#79B1FC"/>
<path d="M107.266 76.6255C107.757 76.5435 108.33 76.5435 108.903 76.3794C109.804 76.2153 110.623 75.8871 111.36 75.559L111.114 72.6875L107.266 76.6255Z" fill="#79B1FC"/>
<path d="M138.059 44.5471V49.5517C140.106 46.6802 154.026 27.8926 154.026 27.8926L138.059 44.5471Z" fill="#79B1FC"/>
<path opacity="0.15" d="M138.059 44.5471V49.5517C140.106 46.6802 154.026 27.8926 154.026 27.8926L138.059 44.5471Z" fill="#79B1FC"/>
<path d="M138.059 41.3468L146.984 33.2246L139.942 38.0651C139.451 38.3933 138.796 38.8855 138.059 39.4598V41.3468Z" fill="#79B1FC"/>
<path fill-rule="evenodd" clip-rule="evenodd" d="M159.597 29.6993C159.761 29.4531 160.007 29.125 160.171 28.8789L160.334 28.6327V28.3046C160.252 26.9919 159.761 25.5151 159.106 24.3665L158.697 23.5461L157.96 24.0384C157.386 24.4486 156.895 24.7767 156.322 25.1049L155.421 24.2845C155.749 23.7102 156.076 23.1359 156.404 22.5616L156.895 21.8232L156.076 21.413C154.848 20.8387 153.374 20.5105 152.064 20.4285H151.736L151.491 20.5926C151.245 20.8387 150.918 21.0028 150.672 21.1669C151.654 19.6081 152.883 18.0493 154.193 16.6546C155.257 15.506 156.486 14.4394 157.714 13.4549H157.878C157.96 13.537 157.96 13.619 157.878 13.619C157.386 14.3574 156.813 15.0958 156.24 15.7521L155.257 16.9007L156.813 17.0648C157.55 17.1468 158.369 17.2289 159.106 17.3929L159.597 17.475L159.925 17.0648C161.399 15.0958 163.2 13.2908 164.756 11.3218C168.932 6.23521 173.763 2.70739 178.922 0C176.22 5.2507 172.617 10.2553 168.359 14.7676C166.639 16.5725 164.838 18.2954 162.955 19.9363L162.545 20.2644L162.627 20.7567C162.791 21.5771 162.955 22.3155 163.036 23.0539L163.282 24.6127L164.429 23.5461C165.084 22.9718 165.739 22.3975 166.476 21.8232H166.639C166.721 21.9053 166.721 21.9873 166.639 21.9873C165.739 23.3 164.756 24.5306 163.692 25.6792C162.545 27.4021 161.071 28.6327 159.597 29.6993Z" fill="#79B1FC"/>
</mask>
<g mask="url(#mask0_445_2487)">
<g filter="url(#filter0_f_445_2487)">
<path d="M108.536 17.0199C108.536 65.358 69.3722 104.544 21.061 104.544C-27.2501 104.544 -66.4141 65.358 -66.4141 17.0199C-66.4141 -31.3182 -27.2501 -70.5039 21.061 -70.5039C69.3722 -70.5039 108.536 -31.3182 108.536 17.0199Z" fill="white"/>
</g>
<g filter="url(#filter1_f_445_2487)">
<path d="M175.984 64.9026C179.232 83.0745 152.966 102.978 117.315 109.359C81.6649 115.739 50.131 106.181 46.8823 88.0086C43.6336 69.8367 69.9003 49.933 105.551 43.5525C141.201 37.1719 172.735 46.7307 175.984 64.9026Z" fill="white"/>
</g>
<g filter="url(#filter2_f_445_2487)">
<path d="M151.855 83.7777C94.5218 116.897 23.5091 101.226 -6.75672 48.7747C-37.0225 -3.67639 -15.0804 -73.0451 42.2523 -106.165C99.5851 -139.284 170.598 -123.613 200.864 -71.1616C231.129 -18.7105 209.187 50.6582 151.855 83.7777Z" fill="white"/>
</g>
</g>
<defs>
<filter id="filter0_f_445_2487" x="-187.268" y="-191.358" width="416.657" height="416.755" filterUnits="userSpaceOnUse" color-interpolation-filters="sRGB">
<feFlood flood-opacity="0" result="BackgroundImageFix"/>
<feBlend mode="normal" in="SourceGraphic" in2="BackgroundImageFix" result="shape"/>
<feGaussianBlur stdDeviation="60.427" result="effect1_foregroundBlur_445_2487"/>
</filter>
<filter id="filter1_f_445_2487" x="-8.14195" y="-13.1771" width="239.147" height="179.266" filterUnits="userSpaceOnUse" color-interpolation-filters="sRGB">
<feFlood flood-opacity="0" result="BackgroundImageFix"/>
<feBlend mode="normal" in="SourceGraphic" in2="BackgroundImageFix" result="shape"/>
<feGaussianBlur stdDeviation="27.3757" result="effect1_foregroundBlur_445_2487"/>
</filter>
<filter id="filter2_f_445_2487" x="-141.209" y="-244.381" width="476.528" height="466.376" filterUnits="userSpaceOnUse" color-interpolation-filters="sRGB">
<feFlood flood-opacity="0" result="BackgroundImageFix"/>
<feBlend mode="normal" in="SourceGraphic" in2="BackgroundImageFix" result="shape"/>
<feGaussianBlur stdDeviation="60.427" result="effect1_foregroundBlur_445_2487"/>
</filter>
<clipPath id="clip0_445_2487">
<rect width="179" height="85.3239" fill="white" transform="translate(0 0.328125)"/>
</clipPath>
</defs>
</svg>
